<mxfile host="Electron" modified="2023-04-27T15:13:12.488Z" agent="Mozilla/5.0 (X11; Linux x86_64) AppleWebKit/537.36 (KHTML, like Gecko) draw.io/21.2.1 Chrome/112.0.5615.87 Electron/24.1.2 Safari/537.36" etag="PdjB5tE1cloxXPBKAfsO" version="21.2.1" type="device">
  <diagram name="Page-1" id="nFmjBOQt1tMfp-Kd0kpV">
    <mxGraphModel dx="1426" dy="878" grid="1" gridSize="10" guides="1" tooltips="1" connect="1" arrows="1" fold="1" page="1" pageScale="1" pageWidth="827" pageHeight="1169" math="0" shadow="0">
      <root>
        <mxCell id="0" />
        <mxCell id="1" parent="0" />
        <mxCell id="TdhcPICSJ8etsV-f-WjF-4" style="edgeStyle=orthogonalEdgeStyle;rounded=0;orthogonalLoop=1;jettySize=auto;html=1;entryX=0.5;entryY=0;entryDx=0;entryDy=0;" parent="1" source="TdhcPICSJ8etsV-f-WjF-1" target="TdhcPICSJ8etsV-f-WjF-3" edge="1">
          <mxGeometry relative="1" as="geometry" />
        </mxCell>
        <mxCell id="TdhcPICSJ8etsV-f-WjF-11" style="edgeStyle=orthogonalEdgeStyle;rounded=0;orthogonalLoop=1;jettySize=auto;html=1;" parent="1" source="TdhcPICSJ8etsV-f-WjF-1" target="TdhcPICSJ8etsV-f-WjF-7" edge="1">
          <mxGeometry relative="1" as="geometry" />
        </mxCell>
        <mxCell id="TdhcPICSJ8etsV-f-WjF-12" style="edgeStyle=orthogonalEdgeStyle;rounded=0;orthogonalLoop=1;jettySize=auto;html=1;entryX=0.5;entryY=0;entryDx=0;entryDy=0;" parent="1" source="TdhcPICSJ8etsV-f-WjF-1" target="TdhcPICSJ8etsV-f-WjF-8" edge="1">
          <mxGeometry relative="1" as="geometry" />
        </mxCell>
        <mxCell id="TdhcPICSJ8etsV-f-WjF-19" style="edgeStyle=orthogonalEdgeStyle;rounded=0;orthogonalLoop=1;jettySize=auto;html=1;" parent="1" source="TdhcPICSJ8etsV-f-WjF-1" target="TdhcPICSJ8etsV-f-WjF-13" edge="1">
          <mxGeometry relative="1" as="geometry" />
        </mxCell>
        <mxCell id="n19rBesYH-pzOeLnAMkZ-3" style="edgeStyle=orthogonalEdgeStyle;rounded=0;orthogonalLoop=1;jettySize=auto;html=1;" parent="1" source="TdhcPICSJ8etsV-f-WjF-1" target="TdhcPICSJ8etsV-f-WjF-2" edge="1">
          <mxGeometry relative="1" as="geometry" />
        </mxCell>
        <mxCell id="n19rBesYH-pzOeLnAMkZ-4" style="edgeStyle=orthogonalEdgeStyle;rounded=0;orthogonalLoop=1;jettySize=auto;html=1;" parent="1" source="TdhcPICSJ8etsV-f-WjF-1" target="n19rBesYH-pzOeLnAMkZ-2" edge="1">
          <mxGeometry relative="1" as="geometry" />
        </mxCell>
        <mxCell id="n19rBesYH-pzOeLnAMkZ-9" style="edgeStyle=orthogonalEdgeStyle;rounded=0;orthogonalLoop=1;jettySize=auto;html=1;" parent="1" source="TdhcPICSJ8etsV-f-WjF-1" target="n19rBesYH-pzOeLnAMkZ-7" edge="1">
          <mxGeometry relative="1" as="geometry" />
        </mxCell>
        <mxCell id="n19rBesYH-pzOeLnAMkZ-10" style="edgeStyle=orthogonalEdgeStyle;rounded=0;orthogonalLoop=1;jettySize=auto;html=1;" parent="1" source="TdhcPICSJ8etsV-f-WjF-1" target="n19rBesYH-pzOeLnAMkZ-8" edge="1">
          <mxGeometry relative="1" as="geometry" />
        </mxCell>
        <mxCell id="WehlBmc-sMz-xUIiOC9G-4" style="edgeStyle=orthogonalEdgeStyle;rounded=0;orthogonalLoop=1;jettySize=auto;html=1;" edge="1" parent="1" source="TdhcPICSJ8etsV-f-WjF-1" target="WehlBmc-sMz-xUIiOC9G-3">
          <mxGeometry relative="1" as="geometry" />
        </mxCell>
        <mxCell id="TdhcPICSJ8etsV-f-WjF-1" value="getData&lt;br&gt;&amp;amp; _utils" style="rounded=0;whiteSpace=wrap;html=1;" parent="1" vertex="1">
          <mxGeometry x="448" y="160" width="120" height="60" as="geometry" />
        </mxCell>
        <mxCell id="n19rBesYH-pzOeLnAMkZ-6" style="edgeStyle=orthogonalEdgeStyle;rounded=0;orthogonalLoop=1;jettySize=auto;html=1;entryX=0;entryY=0.5;entryDx=0;entryDy=0;" parent="1" source="TdhcPICSJ8etsV-f-WjF-2" target="TdhcPICSJ8etsV-f-WjF-13" edge="1">
          <mxGeometry relative="1" as="geometry">
            <Array as="points">
              <mxPoint x="294" y="510" />
            </Array>
          </mxGeometry>
        </mxCell>
        <mxCell id="TdhcPICSJ8etsV-f-WjF-2" value="identifyMeanline" style="rounded=0;whiteSpace=wrap;html=1;" parent="1" vertex="1">
          <mxGeometry x="194" y="330" width="120" height="60" as="geometry" />
        </mxCell>
        <mxCell id="TdhcPICSJ8etsV-f-WjF-14" style="edgeStyle=orthogonalEdgeStyle;rounded=0;orthogonalLoop=1;jettySize=auto;html=1;entryX=0;entryY=0.5;entryDx=0;entryDy=0;" parent="1" source="TdhcPICSJ8etsV-f-WjF-3" target="TdhcPICSJ8etsV-f-WjF-13" edge="1">
          <mxGeometry relative="1" as="geometry">
            <Array as="points">
              <mxPoint x="84" y="510" />
            </Array>
          </mxGeometry>
        </mxCell>
        <mxCell id="TdhcPICSJ8etsV-f-WjF-3" value="dataPreProc" style="rounded=0;whiteSpace=wrap;html=1;" parent="1" vertex="1">
          <mxGeometry x="24" y="330" width="120" height="60" as="geometry" />
        </mxCell>
        <mxCell id="TdhcPICSJ8etsV-f-WjF-16" style="edgeStyle=orthogonalEdgeStyle;rounded=0;orthogonalLoop=1;jettySize=auto;html=1;" parent="1" source="TdhcPICSJ8etsV-f-WjF-7" target="TdhcPICSJ8etsV-f-WjF-13" edge="1">
          <mxGeometry relative="1" as="geometry" />
        </mxCell>
        <mxCell id="TdhcPICSJ8etsV-f-WjF-7" value="kinematicModel" style="rounded=0;whiteSpace=wrap;html=1;" parent="1" vertex="1">
          <mxGeometry x="530" y="330" width="120" height="60" as="geometry" />
        </mxCell>
        <mxCell id="TdhcPICSJ8etsV-f-WjF-17" style="edgeStyle=orthogonalEdgeStyle;rounded=0;orthogonalLoop=1;jettySize=auto;html=1;entryX=1;entryY=0.5;entryDx=0;entryDy=0;" parent="1" source="TdhcPICSJ8etsV-f-WjF-8" target="TdhcPICSJ8etsV-f-WjF-13" edge="1">
          <mxGeometry relative="1" as="geometry">
            <Array as="points">
              <mxPoint x="930" y="510" />
            </Array>
          </mxGeometry>
        </mxCell>
        <mxCell id="TdhcPICSJ8etsV-f-WjF-8" value="bodyshape" style="rounded=0;whiteSpace=wrap;html=1;" parent="1" vertex="1">
          <mxGeometry x="870" y="330" width="120" height="60" as="geometry" />
        </mxCell>
        <mxCell id="TdhcPICSJ8etsV-f-WjF-13" value="main" style="rounded=0;whiteSpace=wrap;html=1;" parent="1" vertex="1">
          <mxGeometry x="448" y="480" width="120" height="60" as="geometry" />
        </mxCell>
        <mxCell id="n19rBesYH-pzOeLnAMkZ-5" style="edgeStyle=orthogonalEdgeStyle;rounded=0;orthogonalLoop=1;jettySize=auto;html=1;" parent="1" source="n19rBesYH-pzOeLnAMkZ-2" target="TdhcPICSJ8etsV-f-WjF-2" edge="1">
          <mxGeometry relative="1" as="geometry" />
        </mxCell>
        <mxCell id="n19rBesYH-pzOeLnAMkZ-2" value="plotIntermediates" style="rounded=0;whiteSpace=wrap;html=1;" parent="1" vertex="1">
          <mxGeometry x="364" y="330" width="120" height="60" as="geometry" />
        </mxCell>
        <mxCell id="n19rBesYH-pzOeLnAMkZ-11" style="edgeStyle=orthogonalEdgeStyle;rounded=0;orthogonalLoop=1;jettySize=auto;html=1;entryX=1;entryY=0.5;entryDx=0;entryDy=0;" parent="1" source="n19rBesYH-pzOeLnAMkZ-7" target="TdhcPICSJ8etsV-f-WjF-13" edge="1">
          <mxGeometry relative="1" as="geometry">
            <Array as="points">
              <mxPoint x="760" y="510" />
            </Array>
          </mxGeometry>
        </mxCell>
        <mxCell id="n19rBesYH-pzOeLnAMkZ-7" value="evaluateError" style="rounded=0;whiteSpace=wrap;html=1;" parent="1" vertex="1">
          <mxGeometry x="700" y="330" width="120" height="60" as="geometry" />
        </mxCell>
        <mxCell id="n19rBesYH-pzOeLnAMkZ-12" style="edgeStyle=orthogonalEdgeStyle;rounded=0;orthogonalLoop=1;jettySize=auto;html=1;entryX=1;entryY=0.5;entryDx=0;entryDy=0;" parent="1" source="n19rBesYH-pzOeLnAMkZ-8" target="TdhcPICSJ8etsV-f-WjF-13" edge="1">
          <mxGeometry relative="1" as="geometry">
            <Array as="points">
              <mxPoint x="1100" y="510" />
            </Array>
          </mxGeometry>
        </mxCell>
        <mxCell id="n19rBesYH-pzOeLnAMkZ-8" value="mask" style="rounded=0;whiteSpace=wrap;html=1;" parent="1" vertex="1">
          <mxGeometry x="1040" y="330" width="120" height="60" as="geometry" />
        </mxCell>
        <mxCell id="WehlBmc-sMz-xUIiOC9G-2" style="edgeStyle=orthogonalEdgeStyle;rounded=0;orthogonalLoop=1;jettySize=auto;html=1;entryX=0.5;entryY=0;entryDx=0;entryDy=0;" edge="1" parent="1" source="WehlBmc-sMz-xUIiOC9G-1" target="TdhcPICSJ8etsV-f-WjF-1">
          <mxGeometry relative="1" as="geometry" />
        </mxCell>
        <mxCell id="WehlBmc-sMz-xUIiOC9G-1" value="dataAttrs" style="rounded=0;whiteSpace=wrap;html=1;" vertex="1" parent="1">
          <mxGeometry x="448" y="50" width="120" height="60" as="geometry" />
        </mxCell>
        <mxCell id="WehlBmc-sMz-xUIiOC9G-7" style="edgeStyle=orthogonalEdgeStyle;rounded=0;orthogonalLoop=1;jettySize=auto;html=1;entryX=1;entryY=0.5;entryDx=0;entryDy=0;" edge="1" parent="1" source="WehlBmc-sMz-xUIiOC9G-3" target="TdhcPICSJ8etsV-f-WjF-13">
          <mxGeometry relative="1" as="geometry">
            <Array as="points">
              <mxPoint x="1270" y="510" />
            </Array>
          </mxGeometry>
        </mxCell>
        <mxCell id="WehlBmc-sMz-xUIiOC9G-3" value="saveData" style="rounded=0;whiteSpace=wrap;html=1;" vertex="1" parent="1">
          <mxGeometry x="1210" y="330" width="120" height="60" as="geometry" />
        </mxCell>
      </root>
    </mxGraphModel>
  </diagram>
</mxfile>
